<svg width="588" height="381" viewBox="0 0 588 381" fill="none" xmlns="http://www.w3.org/2000/svg">
    <rect x="2" y="2" width="584" height="377" fill="#fff" stroke="#4a7690"
          stroke-width="4"/>
    <circle cx="220.5" cy="190.5" r="160.5" fill="#f1f1f1"/>
    <circle cx="220" cy="189" r="98" fill="#f9f9f9"/>
    <circle cx="221.5" cy="188.5" r="43.5" fill="#094367"/>
    <path d="M396.395 255C477.547 253.5 529.58 167.5 584 210V320H4V197C12.4335 216.333 39.6115 255 80.856 255C132.412 255 171.078 190 226.93 190C282.782 190 315.243 256.5 396.395 255Z" fill="#0096eb"/>
    <path d="M191.605 312C110.453 310.5 58.4198 224.5 4 267V377H584V254C575.567 273.333 548.388 312 507.144 312C455.588 312 416.922 247 361.07 247C305.218 247 272.757 313.5 191.605 312Z" fill="#fff"/>
</svg>
